<svg width="71" height="68" viewBox="0 0 71 68" fill="none" xmlns="http://www.w3.org/2000/svg">
<path id="data" d="M14.8453 22.0737C14.8453 26.0472 18.0591 29.2317 22.0033 29.2317H32.492M26.3566 54.6501H40.322M0.5 54.6501H11.427M52.2131 54.6501H66.3247M45.7271 14.9157H22.0325C18.0591 14.9157 14.8745 11.7019 14.8745 7.75764C14.8745 3.7842 18.0883 0.599609 22.0325 0.599609H48.0936C52.0671 0.599609 55.2517 3.81342 55.2517 7.75764C55.2517 11.7311 52.0378 14.9157 48.0936 14.9157C52.0671 14.9157 55.2517 18.1295 55.2517 22.0737C55.2517 26.0472 52.0378 29.2317 48.0936 29.2317L35.0631 29.2025V40.8891H9.20651V47.3167H0.5V66.5996H17.8838V47.3167H26.3566V66.5996H43.7404V47.3167H38.0724V40.8891H60.8904V47.3167H52.1839V66.5996H69.5969V47.3167H63.0232M24.1361 7.72854C24.1361 8.77737 23.2859 9.62761 22.2371 9.62761C21.1882 9.62761 20.338 8.77737 20.338 7.72854C20.338 6.67971 21.1882 5.82947 22.2371 5.82947C23.2859 5.82947 24.1361 6.67971 24.1361 7.72854ZM30.0671 7.72854C30.0671 8.77737 29.2168 9.62761 28.168 9.62761C27.1192 9.62761 26.2689 8.77737 26.2689 7.72854C26.2689 6.67971 27.1192 5.82947 28.168 5.82947C29.2168 5.82947 30.0671 6.67971 30.0671 7.72854ZM24.1361 22.0737C24.1361 23.1225 23.2859 23.9728 22.2371 23.9728C21.1882 23.9728 20.338 23.1225 20.338 22.0737C20.338 21.0249 21.1882 20.1746 22.2371 20.1746C23.2859 20.1746 24.1361 21.0249 24.1361 22.0737ZM30.0671 22.0737C30.0671 23.1225 29.2168 23.9728 28.168 23.9728C27.1192 23.9728 26.2689 23.1225 26.2689 22.0737C26.2689 21.0249 27.1192 20.1746 28.168 20.1746C29.2168 20.1746 30.0671 21.0249 30.0671 22.0737Z" stroke="black" stroke-miterlimit="10"/>
</svg>
