<svg width="66" height="67" viewBox="0 0 66 67" fill="none" xmlns="http://www.w3.org/2000/svg">
<path id="map" d="M42.3198 27.7205H56.4845L59.3119 40.8596M23.9973 28.9956C25.9376 31.9616 28.571 35.2325 32.1191 38.7806C46.5332 24.3664 45.7293 14.1102 45.7293 14.1102C45.7293 6.59828 39.6311 0.5 32.1191 0.5C24.6071 0.5 18.5088 6.59828 18.5088 14.1102C18.5088 14.1102 18.093 19.4047 23.1934 27.7205H9.91581L4.75999 51.8087L20.5878 38.7806L44.8423 61.8708L59.6999 42.7167L64.8003 66.5H1.59998L4.37192 53.5827M37.1918 14.1102C37.1918 16.9117 34.9206 19.1829 32.1191 19.1829C29.3175 19.1829 27.0464 16.9117 27.0464 14.1102C27.0464 11.3086 29.3175 9.03753 32.1191 9.03753C34.9206 9.03753 37.1918 11.3086 37.1918 14.1102Z" stroke="black" stroke-miterlimit="10"/>
</svg>
