<svg width="67" height="67" viewBox="0 0 67 67" fill="none" xmlns="http://www.w3.org/2000/svg">
<path d="M24.8236 25.1202C27.0187 22.8658 30.0739 21.442 33.4852 21.442C40.1297 21.442 45.5283 26.8407 45.5283 33.4852C45.5283 40.1297 40.1297 45.5283 33.4852 45.5283C26.8407 45.5283 21.442 40.1297 21.442 33.4852C21.442 31.0528 22.1539 28.7984 23.3998 26.9297L17.9715 22.2726C16.3993 24.4973 15.3018 27.078 14.8272 29.896H10.0811V36.4515H14.8272C15.3018 39.2398 16.3993 41.8204 17.9715 44.0748L14.5899 47.4267L19.247 52.0838L22.5989 48.7022C24.8236 50.2744 27.4043 51.3719 30.2222 51.8465V56.5926H36.7778V51.8465C39.5661 51.3719 42.1467 50.2744 44.4011 48.7022L47.753 52.0542L52.4101 47.3971L49.0582 44.0452C50.6303 41.8205 51.7279 39.2398 52.2025 36.4218H56.9485V29.896H52.2025C51.7279 27.1076 50.6303 24.527 49.0582 22.2726L52.4101 18.9207L47.753 14.2636L44.4011 17.6155C42.1764 16.0434 39.5957 14.9458 36.7778 14.4712V9.72517H30.2222V14.4712C27.4339 14.9755 24.8533 16.073 22.5989 17.6452L19.247 14.2636L12.7805 7.82674C18.4461 3.16966 25.5652 0.5 33.5148 0.5C51.7279 0.5 66.5 15.2721 66.5 33.5148C66.5 51.7575 51.7279 66.5 33.5148 66.5C15.3018 66.5 0.5 51.7279 0.5 33.5148C0.5 23.993 4.53416 15.3908 11.0007 9.36921H4.05955" stroke="black" stroke-miterlimit="10"/>
</svg>
