<svg width="238" height="227" viewBox="0 0 238 227" fill="none" xmlns="http://www.w3.org/2000/svg">
<path id="Vector" d="M155.3 49.5996H74.2C60.6 49.5996 49.7 38.5996 49.7 25.0996C49.7 11.4996 60.7 0.599609 74.2 0.599609H163.4C177 0.599609 187.9 11.5996 187.9 25.0996C187.9 38.6996 176.9 49.5996 163.4 49.5996C177 49.5996 187.9 60.5996 187.9 74.0996C187.9 87.6996 176.9 98.5996 163.4 98.5996L118.8 98.4996V138.5H30.3V160.5H0.5V226.5H60V160.5H89V226.5H148.5V160.5H129.1V138.5H207.2V160.5H177.4V226.5H237V160.5H214.5" stroke="black" stroke-miterlimit="10"/>
</svg>
